<svg xmlns="http://www.w3.org/2000/svg" viewBox="0 0 128 128">
  <path fill="#F7A80D" d="M38.089 77.466l-11.4 4.896 10.559 4.514 12.241-4.514-11.4-4.896zm-17.138 6.12l-.382 22.034 16.679 7.345V90.089l-16.297-6.503zm34.276 0l-15.073 5.739V110.9l15.073-6.121V83.586zm17.979-68.551L61.44 19.9l11.4 4.515 12.241-4.515-11.4-4.896zm-15.914 6.503v22.034l14.692 4.132V28.421l-14.692-6.884zm31.828 1.224l-13.486 5.738v23.353l13.486-7.464V22.762z"></path>
  <path fill="#000" d="M63.962 63.488l12.64-7.165V31.73l-12.64 8.25v23.508zm-1.693 1.519L49.76 71.143V35.054l12.509-10.594v40.547zm-26.045 8.729l13.442-4.718V30.163L36.224 40.31v33.426zm67.42-28.908l-11.567 8.097v26.342l11.567-4.59V44.828zm-51.052-10.825l-12.68 9.446v30.041l12.68-4.591V34.003z"></path>
  <path fill="#F7A80D" d="M78.224 92.821l11.4 4.896-10.559 4.514-12.241-4.514 11.4-4.896zm17.138 6.12l.382 22.034-16.679 7.345V105.9l16.297-6.96zm-34.276 0l15.073 5.738v22.413l-15.073-6.121V98.941zm41.295-32.323l-11.4 4.514 10.558 4.896 12.242-4.896-11.4-4.514zm-51.045 11.798v21.576l16.916 6.979v-22.034l-16.916-6.521zm33.522 0l-15.3 5.739v22.892l15.3-6.121V78.416z"></path>
</svg> 