<svg xmlns="http://www.w3.org/2000/svg" viewBox="0 0 128 128">
  <path fill-rule="evenodd" clip-rule="evenodd" fill="#3A4D54" d="M73.8 50.8h11.3v11.5h5.7c2.6 0 5.3-.5 7.8-1.3 1.2-.4 2.6-1 3.8-1.7-1.6-2.1-2.4-4.7-2.6-7.3-.3-3.5.4-8.1 2.8-10.8l1.2-1.4 1.4 1.1c3.6 2.9 6.5 6.8 7.1 11.4 4.3-1.3 9.3-1 13.1 1.2l1.5.9-.8 1.6c-3.2 6.2-9.9 8.2-16.4 7.8-9.8-24.3-31-35.8-56.8-35.8-13.3 0-25.5 5-32.5 16.8l-.1.3c-2.4 4.4-3.1 9.2-2.6 14 .2 1.8.6 3.6 1.3 5.4l.3 1.1.9.3h17.4zM72.1 50.8H60.8V39.5h11.3v11.3zm-11.3 1.8H49.5V39.5h11.3v13.1zm-13.1-1.8H36.4V39.5h11.3v11.3zm11.3 0H38.2V53.9h11.3v11.3zm13.1 0H51.3V53.9h11.3v11.3zm0-13.1H51.3V40.8h11.3v11.3zm11.3 13.1H62.6V53.9h11.3v11.3zM27 53.9H15.7V42.7H27v11.2zm101.5-5.3c.4 5.3-2.6 9.5-4.7 11.5-2.4-2.1-4.5-4.5-6.9-6.6-2.2-1.9-4.1-3.6-5.9-5.6-1.8-1.8-3.5-3.9-5.2-5.9v-.1c3.6 1.8 7.5 2.2 11.3 1.7 2.1-.2 4.1-.8 5.9-1.3 2.1-.6 4.2-1.1 5.5-1l.3 1.1.7 1.1c.2 4.9-.9 3.3-1 5.1z"></path>
  <path fill="#00AADA" d="M110.2 37.9c.8-5.9-3.6-10.5-6.4-12.7-3.1 3.6-3.6 13.2 1.3 17.2-2.8 2.4-8.5 4.7-14.5 4.7H1.8c-.5 3 .2 7.2 1.8 10.5 1.6 3.2 4 5.6 6.9 7.5-1.9.8-5.5 1.8-10.3.8l-.3.5c-1.3 2.7-1.3 5.5-.8 7.4 1.6 5.6 6.5 9.1 11.5 9.1 10.8 0 18.8-4.6 22.7-14.9.7.1 1.5.1 2.2.1h.1c3.3 11.2 13.5 20.8 28.3 20.8 12.9 0 24.1-7.1 29.8-18.4.6.4 2.8 1.6 6.4 1.6 5.6 0 10.7-4.5 12.9-8.7 1.5-2.9 1.8-7.1.9-9.5 1-.5 3.5-1.6 6-1.6 5.2-.1 8.8-4.3 8.8-9.7 0-4.4-3.1-7.6-6.9-7.7z"></path>
  <path fill="#28B8EB" d="M110.2 37.9c.8-5.9-3.6-10.5-6.4-12.7-3.1 3.6-3.6 13.2 1.3 17.2-2.8 2.4-8.5 4.7-14.5 4.7h-5.8c0 9.9-7.7 17.9-17.1 17.9-9.5 0-17.1-8-17.1-17.9 0-3.7 1.1-7.2 3-10.1-.9-1.1-1.9-2.3-2.5-3.5-2.3-5.2-.2-12.5 7.2-15 .1 0 .2-.1.3-.1 6.1-1.6 12.9-1.4 18.6.8.6.2 1.3.4 1.9.7 5.6-2.7 12.1-3.5 18.2-1.9 9.1 2.4 15.3 9.8 14.9 19.9z"></path>
  <path fill="#FFFFFF" d="M26.4 76.3c.4 1.9.2 3.6-.5 4.9-.7 1.2-1.9 2.1-3.3 2.6 1.1-2.3-.2-5.8-3.5-9-.7-.7-1.5-1.4-2.4-2.1.1-.7.3-1.4.5-2.1 1.5-4.6 6.4-10.2 15.8-9 0 0-4.2-11.8-17.8-7.6-1.1 0-1.9.6-2.3 1-6 9-2.6 9.5-1.6 18.5-1.6 1.2-2.5 2.1-2.9 2.8-.4.7-.5 1.5-.2 2.2.4 1.4 1.6 1.9 2.9 1.9 1.7-.1 3-1.1 3.7-2.5.7-1.5.5-3.2-.4-5.6z"></path>
</svg> 