<svg xmlns="http://www.w3.org/2000/svg" viewBox="0 0 128 128">
  <path fill-rule="evenodd" clip-rule="evenodd" fill="#439934" d="M88.038 42.812c1.605 4.643 2.761 9.383 3.141 14.296.472 6.095.256 12.147-1.029 18.142-.035.165-.109.32-.164.48-.403.001-.814-.049-1.208.012-3.329.523-6.655 1.065-9.981 1.604-3.438.557-6.881 1.092-10.313 1.687-1.216.21-2.721-.041-3.212 1.641-.014.046-.154.054-.235.08l.166-10.051-.169-24.252 1.602-.275c2.62-.429 5.24-.864 7.862-1.281 3.129-.497 6.261-.98 9.392-1.465 1.381-.215 2.764-.412 4.148-.618z"></path>
  <path fill-rule="evenodd" clip-rule="evenodd" fill="#45A538" d="M61.729 110.054c-1.69-1.453-3.439-2.842-5.059-4.37-8.717-8.222-15.093-17.899-18.233-29.566-.865-3.211-1.442-6.474-1.627-9.792-.13-2.322-.318-4.665-.154-6.975.437-6.144 1.325-12.229 3.127-18.147l.099-.138c.175.233.427.439.516.702 1.759 5.18 3.505 10.364 5.242 15.551 5.458 16.3 10.909 32.604 16.376 48.9.107.318.384.579.583.866l-.87 2.969z"></path>
  <path fill-rule="evenodd" clip-rule="evenodd" fill="#46A037" d="M88.038 42.812c-1.384.206-2.768.403-4.149.616-3.131.485-6.263.968-9.392 1.465-2.622.417-5.242.852-7.862 1.281l-1.602.275-.012-1.045c-.053-.859-.144-1.717-.154-2.576-.069-5.478-.112-10.956-.18-16.434-.042-3.429-.105-6.857-.175-10.285-.043-2.13-.089-4.261-.185-6.388-.052-1.143-.236-2.28-.311-3.423-.042-.657.016-1.319.029-1.979.817 1.583 1.616 3.178 2.456 4.749 1.327 2.484 3.441 4.314 5.344 6.311 7.523 7.892 12.864 17.068 16.193 27.433z"></path>
  <path fill-rule="evenodd" clip-rule="evenodd" fill="#409433" d="M65.036 80.753c.081-.026.222-.034.235-.08.491-1.682 1.996-1.431 3.212-1.641 3.432-.594 6.875-1.13 10.313-1.687 3.326-.539 6.652-1.081 9.981-1.604.394-.062.805-.011 1.208-.012-.622 2.22-1.112 4.488-1.901 6.647-.896 2.449-1.98 4.839-3.131 7.182a49.142 49.142 0 01-6.353 9.763c-1.919 2.308-4.058 4.441-6.202 6.548-1.185 1.165-2.582 2.114-3.882 3.161l-.337-.23-1.214-1.038-1.256-2.753a41.402 41.402 0 01-1.394-9.838l.023-.561.171-2.426c.057-.828.133-1.655.168-2.485.129-2.982.241-5.964.359-8.946z"></path>
  <path fill-rule="evenodd" clip-rule="evenodd" fill="#4FAA41" d="M65.036 80.753c-.118 2.982-.23 5.964-.357 8.947-.035.83-.111 1.657-.168 2.485l-.765.289c-1.699-5.002-3.399-9.951-5.062-14.913-2.75-8.209-5.467-16.431-8.213-24.642a4341.62 4341.62 0 00-8.49-25.045c-.031-.09-.08-.175-.111-.266l28.52 7.706c.014 2.313.043 4.622.073 6.93.031 2.312.072 4.623.091 6.934.01 1.172-.069 2.344-.109 3.516-.023.591-.053 1.182-.053 1.772-.001 11.285.014 22.57.014 33.855z"></path>
  <path fill="#4AA73C" d="M88.41 42.254a57.6 57.6 0 00-.372-2.453c-.353-2.023-.724-4.045-1.052-6.075-.269-1.66-.483-3.33-.762-4.99a423.887 423.887 0 00-.897-5.889c-.174-1.084-.397-2.158-.583-3.238-.178-1.038-.337-2.081-.506-3.122-.168-1.042-.333-2.085-.507-3.125a74.182 74.182 0 00-.591-3.243c-.2-1.039-.423-2.07-.627-3.104-.227-1.152-.449-2.305-.668-3.458a35.11 35.11 0 00-.18-.83c-.073-.31-.162-.617-.347-.897a1.68 1.68 0 00-.795-.666c-.18-.077-.427.003-.445-.283-.013-.189.283-.274.464-.294.132-.021.269.014.371.033 1.83.271 3.548 1.095 5.021 2.34 1.759 1.489 3.145 3.334 4.368 5.286 1.15 1.85 2.073 3.828 2.895 5.839a39.27 39.27 0 011.603 4.666c.587 2.056 1.081 4.139 1.493 6.243a90.417 90.417 0 011.304 8.158c.149 1.277.218 2.562.326 3.844.13 1.533.275 3.062.367 4.596.03.496.002.996.002 1.494L88.41 42.254zm4.301.499c-.078 1.007-.226 2.014-.316 3.022a90.897 90.897 0 01-.735 5.241 67.814 67.814 0 01-1.699 8.264 41.768 41.768 0 01-3.213 8.746 38.38 38.38 0 01-5.189 8.298c-2.128 2.571-4.641 4.693-7.371 6.623-1.943 1.377-4.077 2.455-6.241 3.607-.102.055-.205.105-.219.224-.493.003-.987-.001-1.48-.001l-.12-.006c-.106-.102-.104-.267.008-.519a24.672 24.672 0 012.088-3.74c.187-.284.43-.544.517-.859.132-.473-.746-.568-1.187-.702-1.14-.34-2.344-.388-3.542-.299-2.007.148-3.94.672-5.958.749-.979.038-1.973-.114-2.925-.33a7.867 7.867 0 01-1.589-.538c.324-.155.679-.245 1.004-.379.838-.346 1.668-.708 2.499-1.066.414-.177.84-.427.713-.905-.134-.511-.744-.716-1.183-.938-1.229-.62-2.274-1.603-3.217-2.647-1.862-2.062-3.196-4.505-4.138-7.066a26.509 26.509 0 01-1.395-5.263c-.54-3.037-.752-6.182-.717-9.253.019-1.696.113-3.396.365-5.07.251-1.674.665-3.337 1.306-4.88a16.215 16.215 0 012.08-3.725c.839-1.143 1.815-2.231 3.008-3.044a7.67 7.67 0 011.692-.929l.345-.125c-.01 2.09.016 4.18.068 6.27.033 1.329.175 2.654.313 3.978a65.835 65.835 0 001.239 8.191 49.836 49.836 0 002.25 8.475c.979 2.693 2.211 5.271 3.626 7.757.818 1.443 1.667 2.872 2.629 4.226 1.348 1.897 2.875 3.658 4.538 5.277 1.992 1.941 4.159 3.694 6.471 5.256 1.012.684 2.035 1.369 3.12 1.939.297.158.609.293.923.424l.3.121c-.097.146-.2.289-.296.434-1.404.145-2.697.182-4.063-.291-1.18-.408-2.398-.635-3.56-1.077-3.663-1.39-6.93-3.597-9.899-6.159a44.166 44.166 0 01-5.409-5.556c-.394-.478-.688-1.038-1.049-1.549-.354.328-.482.742-.651 1.135a37.749 37.749 0 01-4.361 8.041 44.661 44.661 0 01-6.039 7.057c-2.265 2.142-4.722 4.07-7.328 5.788-1.063.699-2.195 1.285-3.317 1.886-.121.064-.256.105-.388.158-.173-.084-.347-.167-.515-.265v-.099h.003c1.369-1.271 2.769-2.52 4.071-3.853a45.406 45.406 0 006.158-7.897 39.785 39.785 0 003.997-8.265 41.054 41.054 0 001.385-5.272c.223-1.32.342-2.66.351-4.002.01-1.31-.115-2.621-.289-3.921a25.888 25.888 0 00-1.38-5.322 19.053 19.053 0 00-3.126-5.744 15.667 15.667 0 00-4.946-4.082c-1.079-.557-2.256-.911-3.396-1.335-.054-.02-.126-.008-.127-.111.092-.052.227-.053.289-.015 1.088.629 2.198 1.222 3.215 1.966a21.572 21.572 0 015.233 5.53 20.936 20.936 0 013.609 10.287c.113 1.611.026 3.224-.224 4.823a29.768 29.768 0 01-1.228 4.829c-.648 1.979-1.484 3.891-2.444 5.748a36.27 36.27 0 01-1.276 2.267.061.018.079.047.112.047 1.141-.38 2.344-.43 3.545-.507a17.287 17.287 0 014.51.345c1.547.338 3.025.929 4.37 1.752 1.223.749 2.299 1.698 3.261 2.774.539.601 1.051 1.224 1.576 1.837.018-.013.035-.026.053-.039l.124.225a14.14 14.14 0 01-1.133 1.235 26.42 26.42 0 01-3.13 2.555c-1.238.899-2.462 1.857-3.822 2.585-1.379.74-2.847 1.307-4.291 1.91-1.947.809-3.925 1.548-5.955 2.115a46.665 46.665 0 01-7.143 1.512c-1.11.142-2.223.223-3.339.293-.248.016-.51.187-.658-.039-.524.03-.787-.283-.784-.765v-1.714l.749-.147c4.444-.867 8.642-2.481 12.511-4.854a28.173 28.173 0 006.079-4.962c.869-.957 1.572-2.059 2.291-3.14.347-.525.582-1.121.841-1.696a10.336 10.336 0 00-.491-9.543c-.541-.92-1.275-1.699-2.222-2.247-1.131-.655-2.349-1.064-3.594-1.373a22.15 22.15 0 00-4.596-.44c-1.401.02-2.793.178-4.18.345-.744.089-1.485.238-2.147.616a4.575 4.575 0 00-1.649 1.912c-.085.157-.073.393-.213.522-.361-.396-.459-.863-.589-1.303a15.443 15.443 0 01-.776-6.859c.162-1.244.419-2.461.987-3.59a25.816 25.816 0 012.532-4.178c1.384-1.808 3.041-3.335 4.904-4.626 1.576-1.093 3.245-2.024 5.055-2.674.46-.164.914-.343 1.377-.498.196-.066.421-.045.622-.112-.307-.321-.633-.598-1.024-.795-.783-.4-1.593-.722-2.41-1.057-1.612-.662-3.202-1.389-4.822-2.045-1.271-.515-2.568-.959-3.898-1.312-1.738-.462-3.396-.563-5.111-.097-.723.198-1.412.575-2.033 1.014a11.595 11.595 0 00-2.517 2.765 14.841 14.841 0 00-1.381 2.496c-.519 1.255-.822 2.62-.864 3.994-.03.951.046 1.906.243 2.838.188.885.548 1.694 1.004 2.47.716 1.219 1.086 2.501.864 3.944-.36.232-.158.445-.237.667a1.756 1.756 0 01-.18.365c-.374-.022-.595-.39-.832-.648a13.304 13.304 0 01-1.508-2.122 14.342 14.342 0 01-1.53-3.852 14.605 14.605 0 01-.275-1.656c-.193-1.972.008-3.83.877-5.599.229-.467.535-.899.805-1.347a13.143 13.143 0 013.289-3.431 13.166 13.166 0 014.558-2.164c1.21-.299 2.444-.287 3.661-.134 1.242.156 2.458.499 3.638.945a36.91 36.91 0 013.801 1.683c1.557.772 3.082 1.605 4.619 2.415.66.347 1.331.673 1.986 1.019.083.044.13.042.137-.061.271-3.499.938-6.939 1.58-10.385.261-1.404.507-2.81.756-4.216.248-1.393.495-2.786.737-4.18.478-2.761.95-5.524 1.421-8.285.401-2.354.801-4.708 1.202-7.063.266-1.557.531-3.113.798-4.67.27-1.583.54-3.167.809-4.75.509-2.993 1.017-5.986 1.524-8.978.414-2.434.83-4.867 1.241-7.302.148-.879.288-1.76.45-2.637.122-.665.195-1.336.325-1.997.105-.533.259-1.056.389-1.584.244-.983.479-1.968.725-2.95.325-1.299.656-2.596.988-3.893.282-1.106.571-2.211.86-3.316.203-.778.407-1.555.611-2.332.486-1.863.97-3.726 1.457-5.588.527-2.018 1.057-4.036 1.584-6.054.246-.943.485-1.887.731-2.83a.938.938 0 00.002-.292c-.007-.14-.184-.205-.285-.085-.163.191-.328.383-.459.596-.892 1.452-1.661 2.978-2.409 4.529-.744 1.539-1.471 3.086-2.161 4.65-.962 2.179-1.874 4.378-2.751 6.594-.844 2.134-1.674 4.273-2.51 6.411-.498 1.275-.991 2.553-1.488 3.829-.311.798-.627 1.593-.942 2.39-.214.541-.429 1.082-.646 1.622-.36.896-.723 1.791-1.082 2.687-.475 1.182-.949 2.366-1.419 3.549-.36.909-.72 1.818-1.075 2.73a66.477 66.477 0 01-.826 2.08c-.377.918-.717 1.857-1.099 2.774-.593 1.421-1.204 2.834-1.812 4.249-.138.322-.287.638-.425.959-.265.613-.52 1.229-.785 1.841-.49 1.134-.991 2.262-1.476 3.398-.167.39-.33.782-.487 1.178-.21.529-.411 1.061-.619 1.59-.611 1.552-1.225 3.105-1.838 4.658-.362.916-.722 1.833-1.089 2.747-.183.456-.379.906-.571 1.36-.459 1.09-.916 2.182-1.381 3.27-.619 1.446-1.244 2.889-1.867 4.332-.361.836-.73 1.668-1.089 2.506-.451 1.045-.903 2.091-1.341 3.142-.514 1.23-1.022 2.462-1.532 3.694-.245.59-.49 1.181-.735 1.771-.437 1.053-.873 2.106-1.312 3.159-.453 1.087-.908 2.174-1.365 3.261-.252.599-.504 1.199-.761 1.797-.458 1.066-.925 2.128-1.385 3.193-.295.686-.581 1.374-.879 2.059-.411.946-.826 1.892-1.243 2.836a4.844 4.844 0 01-.251.44c-.059.003-.116.009-.173.011-.144-.398-.289-.795-.447-1.19-.38-.951-.783-1.895-1.211-2.83a85.165 85.165 0 00-2.081-4.223c-.309-.595-.637-1.182-.957-1.772-1.624-2.982-3.249-5.963-4.873-8.944a456.533 456.533 0 00-5.21-9.399 101.878 101.878 0 00-5.457-8.787 45.359 45.359 0 00-6.129-7.297 28.344 28.344 0 00-7.816-5.629c-2.912-1.413-6.008-2.25-9.209-2.633a20.217 20.217 0 00-4.152-.125c-.196.011-.336.051-.493.227-.031.287-.015.575-.007.861.038 1.337.178 2.665.443 3.979.681 3.392 1.986 6.505 3.913 9.36 1.748 2.591 3.834 4.844 6.149 6.891.36.316.726.627 1.11.957.666-.305 1.21-.568 1.767-.797a.707.707 0 00.509-.594.708.708 0 00-.27-.71 6.402 6.402 0 00-.539-.367c-2.988-1.88-5.336-4.356-6.945-7.511-1.173-2.298-1.953-4.76-2.352-7.339-.193-1.246-.294-2.503-.204-3.77.051-.746.151-1.495.335-2.219.152-.605.538-1.022 1.085-1.297a5.3 5.3 0 011.347-.435c.438-.081.882-.101 1.327-.133a28.98 28.98 0 017.367.453 28.877 28.877 0 019.07 3.396c2.899 1.668 5.436 3.817 7.615 6.396a43.402 43.402 0 016.201 9.985 71.374 71.374 0 014.408 11.892c.652 2.341 1.243 4.698 1.812 7.062.784 3.255 1.502 6.527 2.222 9.798.408 1.849.834 3.694 1.219 5.548.93.441.138.902.212 1.352.254 1.555.499 3.112.756 4.667.155.94.326 1.877.488 2.816.182 1.049.361 2.097.544 3.145.201 1.156.408 2.311.605 3.467.214 1.252.423 2.505.601 3.764.064.469-.024.496-.466.518-.253.013-.508.025-.759.047-.735.069-1.489.229-2.151.602-1.177.664-1.899 1.696-2.165 3.029-.206 1.026-.119 2.061-.12 3.095-.005 3.097-.002 6.193-.002 9.29v.743l-.5.039z"></path>
</svg>