<svg xmlns="http://www.w3.org/2000/svg" viewBox="0 0 128 128">
  <path fill="#00618A" d="M116.948 97.807c-6.863-.187-12.104.452-16.585 2.341-1.273.537-3.305.552-3.513 2.147.7.733.809 1.829 1.365 2.731 1.07 1.73 2.876 4.052 4.488 5.268 1.762 1.33 3.577 2.751 5.465 3.902 3.358 2.047 7.107 3.217 10.34 5.268 1.906 1.21 3.799 2.733 5.658 4.097.92.675 1.537 1.724 2.732 2.147v-.194c-.628-.8-.79-1.898-1.366-2.733l-2.537-2.537c-2.48-3.292-5.629-6.184-8.976-8.585-2.669-1.916-8.642-4.504-9.755-7.609l-.195-.195c1.892-.214 4.107-.898 5.854-1.367 2.934-.786 5.556-.583 8.585-1.365l4.097-1.171v-.78c-1.531-1.571-2.623-3.651-4.292-5.073-4.37-3.72-9.138-7.437-14.048-10.537-2.724-1.718-6.089-2.835-8.976-4.292-.971-.491-2.677-.746-3.318-1.562-1.517-1.932-2.342-4.382-3.511-6.633-2.449-4.717-4.854-9.868-7.024-14.831-1.48-3.384-2.447-6.72-4.293-9.756-8.86-14.567-18.396-23.358-33.169-32-3.144-1.838-6.929-2.563-10.929-3.513-2.145-.129-4.292-.26-6.438-.391-1.311-.546-2.673-2.149-3.902-2.927C17.811 4.565 3.012-5.515.697 13.571c-1.54 12.6 9.417 24.972 14.829 31.378 3.566 4.207 8.106 8.888 12.624 11.908 2.278 1.521 6.45 2.28 8.778 3.902-1.07 1.454-.275 3.503-.39 5.268-.501 8.669-1.201 22.176 4.683 28.243 1.803 1.865 6.077 5.915 11.91 4.292 5.068-1.415 3.937-8.48 5.463-14.047 1.563-.008 1.685-1.558 2.147-2.732l-.187-.186c-.936 2.506-2.498 4.639-3.908 6.827-.393.57-1.037 1.823-1.565 1.757-.798-.798.269-3.125.39-4.683.285-3.607.858-7.57.779-11.908 1.115.625 2.025 1.634 2.928 2.537 2.191 2.164 6.019 6.815 9.365 6.438 1.669-.224 2.482-1.689 3.902-2.536.352-.194.786-.257.779-.731-.222-1.051-.806-1.466-1.364-2.147-1.34-1.637-2.807-3.737-4.293-5.463-1.639-1.894-4.691-3.895-5.268-6.438.521-.551 1.325-.358 1.951-.391 1.869.475 3.575 1.115 5.073 1.949 1.567.869 3.138 2.701 4.87 2.731 1.81.068 3.036-1.765 3.511-2.731-.391-1.346-1.426-1.963-2.341-2.731-2.324-1.976-4.915-4.621-7.705-5.268-2.542-.59-4.876-.872-7.317-1.757-1.605-.609-3.292-1.528-4.683-2.34-4.489-2.637-8.103-5.551-11.718-9.366-1.287-1.356-2.363-2.899-3.318-4.488-1.023-1.711-1.519-3.429-2.732-4.876v-.184c.635-.583 1.498-.961 2.147-1.562.895-.836 1.679-1.76 2.341-2.732.934-1.367 1.756-2.857 2.536-4.293 1.5-2.746 2.461-5.885 4.097-8.39 1.844-2.812 3.511-5.85 6.048-7.999 1.012-.909 2.799-1.137 3.902-1.952.368-.27.445-.79.781-1.171v-.2h-.39c-.26.352-.621.415-.974.586-1.698.84-4.114 1.641-6.243 2.731-1.609.829-2.701 1.95-3.902 2.927-2.328 1.896-4.554 4.32-6.438 6.633-1.66 2.043-3.106 4.251-4.488 6.438-1.407 2.227-2.605 4.532-4.097 6.438-1.33 1.693-4.067 2.376-6.048 3.318-.045.454 1.003.246.975.779-.641 1.02-1.685 1.6-2.536 2.536-2.187 2.394-4.026 5.483-6.243 8.194v-.2c-.106-1.547.538-2.7.974-3.901.689-1.895 1.388-3.956 1.757-6.048-.798-.921-2.078-1.688-3.123-2.537-1.059-.864-2.273-1.591-3.122-2.732-1.123-1.502-2.267-3.146-3.123-4.682-2.951-5.253-4.631-11.193-6.633-17.172-1.057-3.148-1.295-6.198-2.537-9.171-5.66-13.37-11.859-21.464-21.367-29.463-1.975-1.663-4.439-2.882-6.829-3.902L9.511 4.025C8.193 3.448 5.67 2.378 4.097 3.318c-.937.667-1.953 2.702-2.341 4.097-1.153 4.121-1.361 10.305-.39 14.83.354 1.654 1.573 3.462 2.341 5.073.308.648.24 1.043.584 1.561.557.842 1.54 1.074 2.147 1.757.691.783 1.398 1.787 1.952 2.732 1.245 2.115 2.389 4.455 3.707 6.438.891 1.343 1.898 2.775 3.123 3.902.584.548 1.677.9 2.341 1.366-1.061 1.493-.197 3.68-.584 5.463-.75 3.556-.261 7.771 1.171 10.147 1.261 2.09 4.301 6.635 8.391 3.901 3.557-2.37 2.76-7.891 3.707-13.073.221-1.198-.985-4.962.39-5.854.454.023 1.521 1.14 2.147 1.561 1.37.92 2.849 2.019 4.294 2.732 2.23 1.098 4.749 1.547 6.827 2.927-.78.11-.08.35-.188.39-1.49.995-2.547 2.302-3.707 3.512-2.87 2.991-5.353 6.776-7.804 10.342-1.165 1.693-2.101 3.576-3.123 5.463-.418.768-1.007 1.254-1.366 1.952.053.668.483.832.779 1.17 1.265.824 3.501.339 5.073.194 2.72-.254 5.105-.895 7.414-1.757 1.297-.483 2.637-1.416 3.902-1.561v.194c-1.491 2.983-2.598 6.348-5.268 8.39-1.359.543-3.478.696-5.073.975v.196h.389c.91-.142 1.953-.142 3.123-.39 2.342-.496 4.442-1.286 6.438-2.147 4.681-2.027 8.803-4.851 12.429-8a79.171 79.171 0 0010.537-11.713c.389-.557.492-1.124.78-1.756-.083-.561-.199-.904-.39-1.366l.196-.195c.795.445 1.465 1.015 2.147 1.562 1.655 1.33 4.485 2.926 6.048 1.366.861-.857.134-2.392-.39-3.317-1.254-2.206-3.254-4.25-5.073-6.244-1.141-1.252-2.47-2.617-2.926-4.097-.608-.477-1.279-.842-1.952-1.366-1.481-1.149-3.308-2.049-4.878-3.122-1.567-1.067-3.316-1.881-4.878-2.732zm65.535 14.829l-.195.39c-1.106.461-1.894 1.248-2.731 1.952l.195.195c1.192-.358 2.554-.914 3.316-1.757.391-.427.191-.836-.195-.78h-.39z"></path>
</svg> 