<svg xmlns="http://www.w3.org/2000/svg" viewBox="0 0 128 128">
  <path fill="#EE4C2C" d="M6.583 67.452l9.766-5.63 19.95 34.6-9.767 5.63-19.95-34.6zm63.38-36.714l9.767 5.675L60.197 70.77l-9.768-5.675 19.534-34.357zM46.642 97.125l19.987-34.595 9.767 5.629-19.987 34.596-9.767-5.63zm41.437-13.602c-3.902-6.842-1.327-15.562 5.767-19.53 7.095-3.97 15.975-1.644 19.929 5.242 3.955 6.886 1.274 15.647-5.82 19.573-7.093 3.926-15.93 1.557-19.876-5.285z"></path>
  <path fill="#EE4C2C" d="M94.433 28.533c4.892 0 8.86 3.969 8.86 8.858 0 4.891-3.968 8.862-8.86 8.862-4.89 0-8.86-3.971-8.86-8.862 0-4.89 3.97-8.858 8.86-8.858z"></path>
</svg> 