<svg xmlns="http://www.w3.org/2000/svg" viewBox="0 0 128 128">
  <g fill="#61DAFB">
    <circle cx="64" cy="64" r="11.4"/>
    <path d="M107.3 45.2c-2.2-.8-4.5-1.6-6.9-2.3.6-2.4 1.1-4.8 1.5-7.1 2.1-13.2-.2-22.5-6.6-26.1-1.9-1.1-4-1.6-6.4-1.6-7 0-15.9 5.2-24.9 13.9-9-8.7-17.9-13.9-24.9-13.9-2.4 0-4.5.5-6.4 1.6-6.4 3.7-8.7 13-6.6 26.1.4 2.3.9 4.7 1.5 7.1-2.4.7-4.7 1.4-6.9 2.3C8.2 50 1.4 56.6 1.4 64s6.9 14 19.3 18.8c2.2.8 4.5 1.6 6.9 2.3-.6 2.4-1.1 4.8-1.5 7.1-2.1 13.2.2 22.5 6.6 26.1 1.9 1.1 4 1.6 6.4 1.6 7.1 0 16-5.2 24.9-13.9 9 8.7 17.9 13.9 24.9 13.9 2.4 0 4.5-.5 6.4-1.6 6.4-3.7 8.7-13 6.6-26.1-.4-2.3-.9-4.7-1.5-7.1 2.4-.7 4.7-1.4 6.9-2.3 12.5-4.8 19.3-11.4 19.3-18.8s-6.8-14-19.3-18.8zM92.5 14.7c4.1 2.4 5.5 9.8 3.8 20.3-.3 2.1-.8 4.3-1.4 6.6-5.2-1.2-10.7-2-16.5-2.5-3.4-4.8-6.9-9.1-10.4-13 7.4-7.3 14.9-12.3 21-12.3 1.3 0 2.5.3 3.5.9zM81.3 74c-1.8 3.2-3.9 6.4-6.1 9.6-3.7.3-7.4.4-11.2.4-3.9 0-7.6-.1-11.2-.4-2.2-3.2-4.2-6.4-6-9.6-1.9-3.3-3.7-6.7-5.3-10 1.6-3.3 3.4-6.7 5.3-10 1.8-3.2 3.9-6.4 6.1-9.6 3.7-.3 7.4-.4 11.2-.4 3.9 0 7.6.1 11.2.4 2.2 3.2 4.2 6.4 6 9.6 1.9 3.3 3.7 6.7 5.3 10-1.7 3.3-3.4 6.6-5.3 10zm8.3-3.3c1.5 3.5 2.7 6.9 3.8 10.3-3.4.8-7 1.4-10.8 1.9 1.2-1.9 2.5-3.9 3.6-6 1.2-2.1 2.3-4.2 3.4-6.2zM64 97.8c-2.4-2.6-4.7-5.4-6.9-8.3 2.3.1 4.6.2 6.9.2 2.3 0 4.6-.1 6.9-.2-2.2 2.9-4.5 5.7-6.9 8.3zm-18.6-15c-3.8-.5-7.4-1.1-10.8-1.9 1.1-3.3 2.3-6.8 3.8-10.3 1.1 2 2.2 4.1 3.4 6.1 1.2 2.2 2.4 4.1 3.6 6.1zm-7-25.5c-1.5-3.5-2.7-6.9-3.8-10.3 3.4-.8 7-1.4 10.8-1.9-1.2 1.9-2.5 3.9-3.6 6-1.2 2.1-2.3 4.2-3.4 6.2zM64 30.2c2.4 2.6 4.7 5.4 6.9 8.3-2.3-.1-4.6-.2-6.9-.2-2.3 0-4.6.1-6.9.2 2.2-2.9 4.5-5.7 6.9-8.3zm22.2 21zM38.6 57.3c-1.1-2-2.2-4.1-3.4-6.1-1.2-2.1-2.4-4.2-3.6-6.1 3.8.5 7.4 1.1 10.8 1.9-1.1 3.3-2.3 6.8-3.8 10.3zm-9.3-23.7c3.5-10.5 9.2-17.3 13.4-17.3 1 0 2.2.3 3.5.9 4.1 2.4 5.5 9.8 3.8 20.3-.3 2.1-.8 4.3-1.4 6.6-5.2-1.2-10.7-2-16.5-2.5-3.4-4.8-6.9-9.1-10.4-13 7.4-7.3 14.9-12.3 21-12.3 0 0-12.8 6.3-13.4 17.3zM20.4 76c-11.4-4.3-16.9-9.5-16.9-12 0-2.9 6.7-9.3 22.8-13.9.3-.1.6-.2.9-.2 1.5 3.9 3.2 7.9 5.1 11.8-1.9 3.9-3.7 7.8-5.2 11.6-.1 0-.1 0-.2.1-7.6 3.4-4 1.5-6.5 2.6zm18 38.3c-1.8 0-3.5-.5-5-1.5-4.1-2.4-5.5-9.8-3.8-20.3.3-2.1.8-4.3 1.4-6.6 5.2 1.2 10.7 2 16.5 2.5 3.4 4.8 6.9 9.1 10.4 13-7.4 7.3-14.9 12.3-21 12.3 0 0 1.9-.9 5-1.5-1.1-4.3.8-9.3-3.5-2.1zM126.6 64c0 2.5-5.6 7.6-16.9 12l-2.5 1c-1.2.5-2.5 1-3.9 1.5-.1 0-.1 0-.2-.1-1.5-3.9-3.2-7.8-5.2-11.6 1.9-3.9 3.7-7.9 5.1-11.8.3.1.6.1.9.2 16.2 4.6 22.7 11 22.7 13.8zm-27.6 12.6c1.5-7.7-5.3 13.4 0 19 .3 0 .7-.1 1-.1 4.4-2.5 6.8-9.8 5.2-19.9zm-2.7-43c0-2.5-1.6-3.8-4.1-3.8-10.3 0-15.8 13.5-18.5 17 .1 0 22.6-6.7 22.6-13.2z"/>
  </g>
</svg> 