<svg xmlns="http://www.w3.org/2000/svg" viewBox="0 0 128 128">
  <path fill="#FF6F00" d="M34.57 47.29h58.86v35.07H34.57z"/>
  <path fill="#E8710A" d="M87.87 94.21L61.58 76.35V94.1l26.29 15.25z"/>
  <path fill="#FFA000" d="M40.13 109.35l21.46-12.39V58.88L40.13 47.29z"/>
  <path fill="#FF6F00" d="M61.59 18.65L39.44 32.99l22.15 11.68 23.28-12.32z"/>
  <path fill="#FFA000" d="M61.59 18.65v26.02l22.15-11.68z"/>
  <path fill="#FFCA28" d="M39.44 32.99l22.15 11.68V18.65z"/>
  <path fill="#FFC107" d="M61.58 58.88L39.44 47.29V32.99l22.14 11.68z"/>
  <path fill="#E8710A" d="M87.87 32.99L61.58 21.42v33.61l26.29-9.83z"/>
  <path fill="#FF6F00" d="M61.58 58.88l26.29-11.59v-14.3L61.58 44.67z"/>
  <path fill="#FFC107" d="M61.59 94.1V76.35L40.13 63.07v30.97z"/>
  <path fill="#E8710A" d="M87.87 94.1V63.07L61.59 76.35V94.1z"/>
</svg>